<svg width="20" height="21" viewBox="0 0 20 21" fill="none" xmlns="http://www.w3.org/2000/svg">
<rect width="20" height="20.0387" transform="matrix(-1 0 0 1 20 0)" fill="white"/>
<path fill-rule="evenodd" clip-rule="evenodd" d="M16.6665 10.0193C16.6665 9.55821 16.2934 9.18439 15.8332 9.18439H4.1665C3.70627 9.18439 3.33317 9.55821 3.33317 10.0193C3.33317 10.4805 3.70627 10.8543 4.1665 10.8543H15.8332C16.2934 10.8543 16.6665 10.4805 16.6665 10.0193Z" fill="#002AFF"/>
<path fill-rule="evenodd" clip-rule="evenodd" d="M10.5894 3.58433C10.264 3.25827 9.73634 3.25827 9.41091 3.58433L3.57757 9.42895C3.25214 9.75502 3.25214 10.2837 3.57757 10.6097L9.41091 16.4544C9.73634 16.7804 10.264 16.7804 10.5894 16.4544C10.9149 16.1283 10.9149 15.5996 10.5894 15.2736L8.16558 12.845C6.60712 11.2836 6.60712 8.75512 8.16558 7.19365L10.5894 4.76512C10.9149 4.43906 10.9149 3.9104 10.5894 3.58433Z" fill="#002AFF"/>
</svg>
