<svg width="20" height="21" viewBox="0 0 20 21" fill="none" xmlns="http://www.w3.org/2000/svg">
<rect width="20" height="20.0387" fill="white"/>
<path fill-rule="evenodd" clip-rule="evenodd" d="M3.3335 10.0194C3.3335 9.55827 3.70659 9.18445 4.16683 9.18445H15.8335C16.2937 9.18445 16.6668 9.55827 16.6668 10.0194C16.6668 10.4805 16.2937 10.8543 15.8335 10.8543H4.16683C3.70659 10.8543 3.3335 10.4805 3.3335 10.0194Z" fill="#002AFF"/>
<path fill-rule="evenodd" clip-rule="evenodd" d="M9.41058 3.58427C9.73602 3.25821 10.2637 3.25821 10.5891 3.58427L16.4224 9.42889C16.7479 9.75496 16.7479 10.2836 16.4224 10.6097L10.5891 16.4543C10.2637 16.7804 9.73602 16.7804 9.41058 16.4543C9.08514 16.1282 9.08514 15.5996 9.41058 15.2735L11.8344 12.845C13.3929 11.2835 13.3929 8.75506 11.8344 7.19359L9.41058 4.76506C9.08514 4.439 9.08514 3.91034 9.41058 3.58427Z" fill="#002AFF"/>
</svg>
