<svg width="56" height="56" viewBox="0 0 56 56" fill="none" xmlns="http://www.w3.org/2000/svg">
<g opacity="0.8" filter="url(#filter0_d)">
<rect x="8" y="6" width="40" height="40" rx="4" fill="#002AFF"/>
</g>
<path d="M23.7817 19.7526C24.3667 19.7526 24.8983 19.8026 25.3817 19.9092C25.8625 20.0176 26.2733 20.1842 26.6192 20.4176C26.9608 20.6509 27.23 20.9592 27.4192 21.3509C27.6067 21.7426 27.7025 22.2259 27.7025 22.7926C27.7025 23.4092 27.5608 23.9259 27.28 24.3426C26.9983 24.7592 26.5825 25.0926 26.0283 25.3592C26.7833 25.5759 27.3417 25.9592 27.7133 26.5009C28.0867 27.0509 28.2675 27.7092 28.2675 28.4676C28.2675 29.0926 28.1592 29.6259 27.9258 30.0759C27.6925 30.5342 27.3675 30.9092 26.9592 31.2009C26.5592 31.4909 26.0842 31.7009 25.5675 31.8401C25.0592 31.9776 24.5242 32.0517 23.9758 32.0517H18V19.7584H23.7817V19.7526ZM32.1167 29.8876C32.4833 30.2442 33.0108 30.4234 33.695 30.4234C34.1867 30.4234 34.6117 30.3001 34.97 30.0509C35.3233 29.8092 35.5367 29.5426 35.62 29.2676H37.7767C37.4408 30.3342 36.9033 31.1009 36.1933 31.5592C35.485 32.0259 34.6233 32.2509 33.6267 32.2509C32.9292 32.2509 32.3067 32.1426 31.7333 31.9176C31.1725 31.6926 30.7 31.3759 30.3 30.9676C29.9133 30.5592 29.6142 30.0676 29.4025 29.4926C29.1917 28.9176 29.0917 28.2842 29.0917 27.6009C29.0917 26.9317 29.2042 26.3176 29.4275 25.7426C29.6525 25.1592 29.9642 24.6759 30.3608 24.2509C30.7733 23.8259 31.2467 23.5051 31.8075 23.2559C32.3683 23.0067 32.9742 22.8951 33.6575 22.8951C34.4158 22.8951 35.0658 23.0317 35.6408 23.3309C36.1992 23.6142 36.6575 24.0142 37.0242 24.4976C37.3908 24.9859 37.6492 25.5476 37.8075 26.1809C37.9658 26.8059 38.0158 27.4642 37.9825 28.1642H31.5742C31.5742 28.8642 31.8075 29.5242 32.1658 29.8851L32.0992 29.9101L32.1167 29.8876ZM23.5833 29.9292C23.8475 29.9292 24.1 29.9042 24.3383 29.8517C24.58 29.8017 24.795 29.7142 24.9742 29.6017C25.1492 29.4892 25.2992 29.3284 25.4075 29.1159C25.5158 28.9159 25.5658 28.6409 25.5658 28.3159C25.5658 27.6909 25.3825 27.2409 25.0325 26.9659C24.6742 26.6992 24.2075 26.5659 23.6242 26.5659H20.7V29.9409H23.5833V29.9159V29.9292ZM34.9225 25.2209C34.6292 24.9001 34.1392 24.7276 33.5417 24.7276C33.1517 24.7276 32.8292 24.7892 32.57 24.9259C32.3183 25.0509 32.1117 25.2176 31.9533 25.4176C31.795 25.6176 31.6892 25.8176 31.6267 26.0426C31.5642 26.2592 31.5267 26.4592 31.5142 26.6342H35.4825C35.4242 26.0092 35.2075 25.5509 34.9158 25.2259V25.2342L34.9225 25.2209ZM23.4333 24.7084C23.9117 24.7084 24.3083 24.5967 24.6208 24.3651C24.9325 24.1401 25.0825 23.7651 25.0825 23.2501C25.0825 22.9634 25.0242 22.7292 24.9325 22.5451C24.8242 22.3617 24.6825 22.2201 24.5158 22.1184C24.3408 22.0151 24.1408 21.9434 23.9158 21.9042C23.6908 21.8601 23.4492 21.8426 23.2158 21.8426H20.6917V24.7092H23.4333V24.7084ZM31.015 20.5767H35.9883V21.7884H31.015V20.5667V20.5751V20.5767Z" fill="white"/>
<defs>
<filter id="filter0_d" x="0" y="0" width="56" height="56" filterUnits="userSpaceOnUse" color-interpolation-filters="sRGB">
<feFlood flood-opacity="0" result="BackgroundImageFix"/>
<feColorMatrix in="SourceAlpha" type="matrix" values="0 0 0 0 0 0 0 0 0 0 0 0 0 0 0 0 0 0 127 0"/>
<feOffset dy="2"/>
<feGaussianBlur stdDeviation="4"/>
<feColorMatrix type="matrix" values="0 0 0 0 0.196078 0 0 0 0 0.172549 0 0 0 0 0.356863 0 0 0 0.25 0"/>
<feBlend mode="normal" in2="BackgroundImageFix" result="effect1_dropShadow"/>
<feBlend mode="normal" in="SourceGraphic" in2="effect1_dropShadow" result="shape"/>
</filter>
</defs>
</svg>
