<svg width="56" height="56" viewBox="0 0 56 56" fill="none" xmlns="http://www.w3.org/2000/svg">
<g opacity="0.8" filter="url(#filter0_d)">
<rect x="8" y="6" width="40" height="40" rx="4" fill="#CF0050"/>
</g>
<path d="M28 16.3125C22.6583 16.3125 18.3125 20.6583 18.3125 26C18.3125 31.3417 22.6583 35.6875 28 35.6875C33.3417 35.6875 37.6875 31.3417 37.6875 26C37.6875 20.6583 33.3417 16.3125 28 16.3125ZM34.4051 20.7799C35.5575 22.188 36.2554 23.9814 36.2736 25.9344C36.0008 25.8767 33.2651 25.3218 30.5118 25.6681C30.2871 25.1196 30.0751 24.6371 29.7846 24.0425C32.844 22.7934 34.2306 21.0159 34.4051 20.7799V20.7799ZM33.4852 19.823C33.3364 20.035 32.0908 21.7092 29.1484 22.8121C27.7925 20.3208 26.2896 18.2743 26.0609 17.968C28.685 17.3355 31.4502 18.0176 33.4852 19.823V19.823ZM24.4821 18.5242C24.7002 18.8234 26.1789 20.8725 27.5499 23.3097C23.6793 24.3376 20.2702 24.3228 19.9002 24.3179C20.4367 21.7502 22.1671 19.6161 24.4821 18.5242ZM19.7254 26.0126C19.7254 25.928 19.7271 25.8438 19.7296 25.7598C20.0916 25.7672 24.1015 25.8189 28.2338 24.5822C28.4706 25.0458 28.6969 25.5164 28.9046 25.9864C25.9125 26.8292 23.1939 29.2492 21.8526 31.5453C20.531 30.0783 19.7254 28.1379 19.7254 26.0126ZM22.921 32.5405C23.7853 30.7736 26.1311 28.4927 29.467 27.3547C30.6287 30.3736 31.1092 32.9036 31.2322 33.6296C28.5716 34.7629 25.3723 34.452 22.921 32.5405V32.5405ZM32.6233 32.8721C32.5385 32.3687 32.0981 29.9464 31.0158 26.9723C33.6088 26.5573 35.8869 27.2367 36.17 27.3261C35.8012 29.6284 34.4796 31.6168 32.6233 32.8721Z" fill="white"/>
<defs>
<filter id="filter0_d" x="0" y="0" width="56" height="56" filterUnits="userSpaceOnUse" color-interpolation-filters="sRGB">
<feFlood flood-opacity="0" result="BackgroundImageFix"/>
<feColorMatrix in="SourceAlpha" type="matrix" values="0 0 0 0 0 0 0 0 0 0 0 0 0 0 0 0 0 0 127 0"/>
<feOffset dy="2"/>
<feGaussianBlur stdDeviation="4"/>
<feColorMatrix type="matrix" values="0 0 0 0 0.196078 0 0 0 0 0.172549 0 0 0 0 0.356863 0 0 0 0.25 0"/>
<feBlend mode="normal" in2="BackgroundImageFix" result="effect1_dropShadow"/>
<feBlend mode="normal" in="SourceGraphic" in2="effect1_dropShadow" result="shape"/>
</filter>
</defs>
</svg>
