<svg width="24" height="24" viewBox="0 0 24 24" fill="none" xmlns="http://www.w3.org/2000/svg">
<path d="M12 3C7.03125 3 3 7.03125 3 12C3 16.9734 7.03125 21 12 21C16.9688 21 21 16.9734 21 12C21 7.03125 16.9688 3 12 3ZM17.7141 7.14844C18.7266 8.33906 19.3687 9.84844 19.4813 11.5031C17.8594 11.4187 15.9187 11.4187 14.3625 11.5641C14.1656 11.0672 13.9641 10.5797 13.7438 10.1109C15.5391 9.33281 16.9219 8.31094 17.7141 7.14844ZM12 4.5C13.8188 4.5 15.4875 5.14688 16.7859 6.225C15.9703 7.25625 14.6906 8.15156 13.0969 8.83125C12.225 7.21875 11.2219 5.83125 10.1531 4.73906C10.7484 4.58906 11.3625 4.5 12 4.5ZM8.60625 5.32031C9.68906 6.39844 10.7062 7.77188 11.5969 9.37969C9.90469 9.89531 7.96406 10.1906 5.89219 10.1906C5.49844 10.1906 5.11406 10.1766 4.73438 10.1531C5.27344 8.03906 6.70313 6.28594 8.60625 5.32031ZM4.51406 11.6437C4.94063 11.6625 5.37188 11.6719 5.80781 11.6672C8.17031 11.6391 10.3688 11.2688 12.2578 10.6641C12.4359 11.0344 12.6047 11.4141 12.7641 11.8031C12.5062 11.8641 12.2766 11.9297 12.0938 12.0047C9.51094 13.0875 7.47656 14.8359 6.375 16.95C5.2125 15.6281 4.5 13.8984 4.5 12C4.5 11.8781 4.50469 11.7609 4.51406 11.6437ZM12 19.5C10.2656 19.5 8.67187 18.9094 7.40156 17.9203C8.4 15.9422 10.1813 14.3062 12.4266 13.2891C12.6375 13.1906 12.9187 13.1109 13.2422 13.0406C13.5094 13.7813 13.7484 14.55 13.9594 15.3469C14.2828 16.5891 14.5125 17.8172 14.6531 19.0078C13.8281 19.3219 12.9375 19.5 12 19.5ZM16.0547 18.3047C15.9141 17.1 15.6844 15.8625 15.3563 14.6063C15.1969 13.9969 15.0141 13.4063 14.8172 12.8297C16.2891 12.7078 18.0516 12.7266 19.4531 12.8297C19.2 15.1313 17.9062 17.1094 16.0547 18.3047Z" fill="#39383F"/>
</svg>
