<svg width="24" height="24" viewBox="0 0 24 24" fill="none" xmlns="http://www.w3.org/2000/svg">
<path d="M19.5563 3H4.5375C3.71719 3 3 3.59063 3 4.40156V19.4531C3 20.2687 3.71719 20.9953 4.5375 20.9953H19.5516C20.3766 20.9953 20.9953 20.2641 20.9953 19.4531V4.40156C21 3.59063 20.3766 3 19.5563 3ZM8.57812 18H6V9.98438H8.57812V18ZM7.37812 8.76562H7.35938C6.53437 8.76562 6 8.15156 6 7.38281C6 6.6 6.54844 6 7.39219 6C8.23594 6 8.75156 6.59531 8.77031 7.38281C8.77031 8.15156 8.23594 8.76562 7.37812 8.76562ZM18 18H15.4219V13.6172C15.4219 12.5672 15.0469 11.85 14.1141 11.85C13.4016 11.85 12.9797 12.3328 12.7922 12.8016C12.7219 12.9703 12.7031 13.2 12.7031 13.4344V18H10.125V9.98438H12.7031V11.1C13.0781 10.5656 13.6641 9.79688 15.0281 9.79688C16.7203 9.79688 18 10.9125 18 13.3172V18Z" fill="#39383F"/>
</svg>
